<?xml version="1.0" encoding="UTF-8"?>
<svg id="Layer_1" data-name="Layer 1" xmlns="http://www.w3.org/2000/svg" viewBox="0 0 200.74 205.67">
  <defs>
    <style>
      .cls-1 {
        letter-spacing: .21em;
      }

      .cls-2 {
        letter-spacing: 0em;
      }

      .cls-3 {
        font-family: Raleway-Regular, Raleway;
        font-size: 11px;
      }

      .cls-3, .cls-4, .cls-5 {
        fill: #000;
      }

      .cls-6 {
        letter-spacing: 0em;
      }

      .cls-7 {
        letter-spacing: .17em;
      }

      .cls-4 {
        stroke-width: 0px;
      }

      .cls-5 {
        font-family: MyriadPro-Regular, 'Myriad Pro';
        font-size: 24px;
      }
    </style>
  </defs>
  <text/>
  <g>
    <g>
      <g>
        <polygon class="cls-4" points="21.63 139.5 57.33 18.5 74.28 18.5 37.59 139.5 21.63 139.5"/>
        <path class="cls-4" d="M73.61,19l-18.11,59.71-18.28,60.29h-14.92l17.62-59.72,17.79-60.28h15.9M74.96,18h-18c-12,40.67-24,81.33-36,122h17c12.33-40.67,24.67-81.33,37-122h0Z"/>
      </g>
      <g>
        <polygon class="cls-4" points="25.96 139.51 25.96 126.51 50.3 126.99 46.58 139.99 25.96 139.51"/>
        <path class="cls-4" d="M26.46,127.02l11.73.23,11.45.22-1.64,5.75-1.79,6.26-9.98-.23-9.77-.23v-12M25.46,126v14c7.17.17,14.33.33,21.5.5,1.33-4.67,2.67-9.33,4-14-8.5-.17-17-.33-25.5-.5h0Z"/>
      </g>
      <g>
        <polygon class="cls-4" points="58.96 141.5 58.96 128.5 133.28 128 129.09 141.5 58.96 141.5"/>
        <path class="cls-4" d="M132.6,128.51l-1.84,5.94-2.03,6.55H59.46v-12.01l36.76-.24,36.38-.24M133.96,127.5c-25.17.17-50.33.33-75.5.5v14h71c1.5-4.83,3-9.67,4.5-14.5h0Z"/>
      </g>
      <g>
        <polygon class="cls-4" points="48.81 157.72 94.33 7 110.29 7 65.59 157.99 48.81 157.72"/>
        <path class="cls-4" d="M109.62,7.5l-44.4,149.99-8.18-.13-7.55-.12,22.52-74.59L94.7,7.5h14.92M110.96,6.5h-17c-15.27,50.57-30.54,101.14-45.81,151.71,5.94.1,11.88.2,17.81.29,15-50.67,30-101.33,45-152h0Z"/>
      </g>
      <g>
        <polygon class="cls-4" points="115.63 141.5 125.33 109.5 139.28 109.5 129.59 141.5 115.63 141.5"/>
        <path class="cls-4" d="M138.61,110l-4.61,15.21-4.78,15.79h-12.91l4.61-15.21,4.78-15.79h12.91M139.96,109h-15c-3.33,11-6.67,22-10,33h15c3.33-11,6.67-22,10-33h0Z"/>
      </g>
      <g>
        <polygon class="cls-4" points="90.59 120.5 93.35 109 139.21 109.49 134.63 120.5 90.59 120.5"/>
        <path class="cls-4" d="M93.75,109.51l22.7.24,22.02.23-1.93,4.63-2.24,5.38h-43.06l1.2-5.02,1.31-5.47M92.96,108.5c-1,4.17-2,8.33-3,12.5h45c1.67-4,3.33-8,5-12-15.67-.17-31.33-.33-47-.5h0Z"/>
      </g>
      <g>
        <polygon class="cls-4" points="48.31 .5 115.26 .5 111.54 11.5 44.17 11.99 48.31 .5"/>
        <path class="cls-4" d="M114.57,1l-1.58,4.68-1.8,5.33-33.57.25-32.73.24,3.78-10.49h65.9M115.96,0H47.96c-1.5,4.17-3,8.33-4.5,12.5,22.81-.17,45.63-.33,68.44-.5,1.35-4,2.7-8,4.06-12h0Z"/>
      </g>
    </g>
    <text class="cls-5" transform="translate(45.99 187.47)"><tspan class="cls-7" x="0" y="0">L</tspan><tspan class="cls-1" x="15.38" y="0">OFI</tspan></text>
    <text class="cls-3" transform="translate(53.66 203.22)"><tspan class="cls-2" x="0" y="0">N</tspan><tspan class="cls-6" x="8.46" y="0">ostalgic</tspan></text>
  </g>
</svg>